<svg width="207" height="69" viewBox="0 0 207 69" fill="none" xmlns="http://www.w3.org/2000/svg">
<path fill-rule="evenodd" clip-rule="evenodd" d="M34.1219 68.3467C52.916 68.3467 68.2443 53.0184 68.2443 34.2247C68.2443 15.431 52.916 0.102783 34.1219 0.102783C15.3282 0.102783 0 15.431 0 34.2247C0 53.0184 15.3282 68.3467 34.1219 68.3467Z" fill="#1F1D1F"/>
<path fill-rule="evenodd" clip-rule="evenodd" d="M34.122 0.115601C52.8851 0.115601 68.0962 15.2681 68.0962 33.8604C68.0962 52.453 52.8851 67.2483 34.122 67.2483C15.3593 67.2483 0.14856 52.453 0.14856 33.8604C0.14856 15.2681 15.3593 0.115601 34.122 0.115601Z" fill="url(#paint0_linear_1_4502)"/>
<path fill-rule="evenodd" clip-rule="evenodd" d="M34.122 0.128448C52.8038 0.128448 67.9476 15.1566 67.9476 33.4964C67.9476 51.8358 52.8038 66.15 34.122 66.15C15.4405 66.15 0.296722 51.8358 0.296722 33.4964C0.296722 15.1566 15.4405 0.128448 34.122 0.128448Z" fill="url(#paint1_linear_1_4502)"/>
<path fill-rule="evenodd" clip-rule="evenodd" d="M34.122 0.141304C52.7218 0.141304 67.7991 15.0451 67.7991 33.132C67.7991 51.219 52.7218 65.052 34.122 65.052C15.5226 65.052 0.445251 51.219 0.445251 33.132C0.445251 15.0451 15.5226 0.141304 34.122 0.141304Z" fill="url(#paint2_linear_1_4502)"/>
<path fill-rule="evenodd" clip-rule="evenodd" d="M34.122 0.154152C52.6401 0.154152 67.6509 14.9336 67.6509 32.7677C67.6509 50.6018 52.6401 63.9537 34.122 63.9537C15.6045 63.9537 0.593384 50.6018 0.593384 32.7677C0.593384 14.9336 15.6045 0.154152 34.122 0.154152Z" fill="url(#paint3_linear_1_4502)"/>
<path fill-rule="evenodd" clip-rule="evenodd" d="M34.122 0.167C52.5578 0.167 67.5031 14.8221 67.5031 32.4037C67.5031 49.985 52.5578 62.8554 34.122 62.8554C15.6866 62.8554 0.74118 49.985 0.74118 32.4037C0.74118 14.8221 15.6866 0.167 34.122 0.167Z" fill="url(#paint4_linear_1_4502)"/>
<path fill-rule="evenodd" clip-rule="evenodd" d="M34.122 0.179855C52.4757 0.179855 67.355 14.7106 67.355 32.0394C67.355 49.3681 52.4757 61.757 34.122 61.757C15.7682 61.757 0.889343 49.3681 0.889343 32.0394C0.889343 14.7106 15.7682 0.179855 34.122 0.179855Z" fill="url(#paint5_linear_1_4502)"/>
<path fill-rule="evenodd" clip-rule="evenodd" d="M34.122 0.192696C52.3941 0.192696 67.2068 14.5991 67.2068 31.675C67.2068 48.7509 52.3941 60.6587 34.122 60.6587C15.8499 60.6587 1.0379 48.7509 1.0379 31.675C1.0379 14.5991 15.8499 0.192696 34.122 0.192696Z" fill="url(#paint6_linear_1_4502)"/>
<path fill-rule="evenodd" clip-rule="evenodd" d="M34.122 0.205551C52.3125 0.205551 67.0583 14.4876 67.0583 31.3107C67.0583 48.1341 52.3125 59.5608 34.122 59.5608C15.9319 59.5608 1.18643 48.1341 1.18643 31.3107C1.18643 14.4876 15.9319 0.205551 34.122 0.205551Z" fill="url(#paint7_linear_1_4502)"/>
<path fill-rule="evenodd" clip-rule="evenodd" d="M34.122 0.218407C52.2308 0.218407 66.9097 14.3761 66.9097 30.9467C66.9097 47.5169 52.2308 58.4624 34.122 58.4624C16.0139 58.4624 1.33456 47.5169 1.33456 30.9467C1.33456 14.3761 16.0139 0.218407 34.122 0.218407Z" fill="url(#paint8_linear_1_4502)"/>
<path fill-rule="evenodd" clip-rule="evenodd" d="M34.122 0.231247C52.1484 0.231247 66.7616 14.2646 66.7616 30.5824C66.7616 46.9001 52.1484 57.3641 34.122 57.3641C16.0959 57.3641 1.48273 46.9001 1.48273 30.5824C1.48273 14.2646 16.0959 0.231247 34.122 0.231247Z" fill="url(#paint9_linear_1_4502)"/>
<path fill-rule="evenodd" clip-rule="evenodd" d="M34.122 0.244102C52.0668 0.244102 66.6134 14.1531 66.6134 30.218C66.6134 46.2833 52.0668 56.2658 34.122 56.2658C16.1775 56.2658 1.63052 46.2833 1.63052 30.218C1.63052 14.1531 16.1775 0.244102 34.122 0.244102Z" fill="url(#paint10_linear_1_4502)"/>
<path fill-rule="evenodd" clip-rule="evenodd" d="M34.122 0.256958C51.9848 0.256958 66.4656 14.0417 66.4656 29.8541C66.4656 45.6661 51.9848 55.1674 34.122 55.1674C16.2592 55.1674 1.77866 45.6661 1.77866 29.8541C1.77866 14.0417 16.2592 0.256958 34.122 0.256958Z" fill="url(#paint11_linear_1_4502)"/>
<path fill-rule="evenodd" clip-rule="evenodd" d="M34.122 0.269798C51.9031 0.269798 66.3171 13.9301 66.3171 29.4897C66.3171 45.0493 51.9031 54.0695 34.122 54.0695C16.3412 54.0695 1.92719 45.0493 1.92719 29.4897C1.92719 13.9301 16.3412 0.269798 34.122 0.269798Z" fill="url(#paint12_linear_1_4502)"/>
<path fill-rule="evenodd" clip-rule="evenodd" d="M34.122 0.282654C51.8215 0.282654 66.169 13.8187 66.169 29.1254C66.169 44.4324 51.8215 52.9711 34.122 52.9711C16.4228 52.9711 2.07538 44.4324 2.07538 29.1254C2.07538 13.8187 16.4228 0.282654 34.122 0.282654Z" fill="url(#paint13_linear_1_4502)"/>
<path fill-rule="evenodd" clip-rule="evenodd" d="M34.122 0.295509C51.7395 0.295509 66.0204 13.7072 66.0204 28.7614C66.0204 43.8153 51.7395 51.8728 34.122 51.8728C16.5052 51.8728 2.22391 43.8153 2.22391 28.7614C2.22391 13.7072 16.5052 0.295509 34.122 0.295509Z" fill="url(#paint14_linear_1_4502)"/>
<path fill-rule="evenodd" clip-rule="evenodd" d="M34.122 0.308357C51.6575 0.308357 65.8723 13.5957 65.8723 28.397C65.8723 43.1984 51.6575 50.7745 34.122 50.7745C16.5869 50.7745 2.37207 43.1984 2.37207 28.397C2.37207 13.5957 16.5869 0.308357 34.122 0.308357Z" fill="url(#paint15_linear_1_4502)"/>
<path fill-rule="evenodd" clip-rule="evenodd" d="M34.122 0.321205C51.5754 0.321205 65.7241 13.4842 65.7241 28.0327C65.7241 42.5812 51.5754 49.6762 34.122 49.6762C16.6689 49.6762 2.5202 42.5812 2.5202 28.0327C2.5202 13.4842 16.6689 0.321205 34.122 0.321205Z" fill="url(#paint16_linear_1_4502)"/>
<path fill-rule="evenodd" clip-rule="evenodd" d="M34.122 0.334053C51.4934 0.334053 65.5756 13.3727 65.5756 27.6684C65.5756 41.9644 51.4934 48.5778 34.122 48.5778C16.7501 48.5778 2.668 41.9644 2.668 27.6684C2.668 13.3727 16.7501 0.334053 34.122 0.334053Z" fill="url(#paint17_linear_1_4502)"/>
<path fill-rule="evenodd" clip-rule="evenodd" d="M34.122 0.346909C51.4122 0.346909 65.4278 13.2616 65.4278 27.3044C65.4278 41.3476 51.4122 47.4799 34.122 47.4799C16.8322 47.4799 2.81653 41.3476 2.81653 27.3044C2.81653 13.2616 16.8322 0.346909 34.122 0.346909Z" fill="url(#paint18_linear_1_4502)"/>
<path fill-rule="evenodd" clip-rule="evenodd" d="M34.122 0.359756C51.3302 0.359756 65.2796 13.1501 65.2796 26.94C65.2796 40.7304 51.3302 46.3816 34.122 46.3816C16.9142 46.3816 2.96469 40.7304 2.96469 26.94C2.96469 13.1501 16.9142 0.359756 34.122 0.359756Z" fill="url(#paint19_linear_1_4502)"/>
<path fill-rule="evenodd" clip-rule="evenodd" d="M34.122 0.372604C51.2482 0.372604 65.1315 13.0386 65.1315 26.5757C65.1315 40.1136 51.2482 45.2832 34.122 45.2832C16.9962 45.2832 3.11325 40.1136 3.11325 26.5757C3.11325 13.0386 16.9962 0.372604 34.122 0.372604Z" fill="url(#paint20_linear_1_4502)"/>
<path fill-rule="evenodd" clip-rule="evenodd" d="M34.122 0.38546C51.1661 0.38546 64.9829 12.9271 64.9829 26.2117C64.9829 39.4964 51.1661 44.1849 34.122 44.1849C17.0782 44.1849 3.26138 39.4964 3.26138 26.2117C3.26138 12.9271 17.0782 0.38546 34.122 0.38546Z" fill="url(#paint21_linear_1_4502)"/>
<path fill-rule="evenodd" clip-rule="evenodd" d="M34.122 0.398308C51.0849 0.398308 64.8348 12.8156 64.8348 25.8474C64.8348 38.8796 51.0849 43.0866 34.122 43.0866C17.1595 43.0866 3.40955 38.8796 3.40955 25.8474C3.40955 12.8156 17.1595 0.398308 34.122 0.398308Z" fill="url(#paint22_linear_1_4502)"/>
<path fill-rule="evenodd" clip-rule="evenodd" d="M34.122 0.411156C51.0029 0.411156 64.6862 12.7041 64.6862 25.483C64.6862 38.2627 51.0029 41.9886 34.122 41.9886C17.2415 41.9886 3.55807 38.2627 3.55807 25.483C3.55807 12.7041 17.2415 0.411156 34.122 0.411156Z" fill="url(#paint23_linear_1_4502)"/>
<path fill-rule="evenodd" clip-rule="evenodd" d="M34.122 0.424011C50.9209 0.424011 64.5381 12.5926 64.5381 25.1191C64.5381 37.6455 50.9209 40.8903 34.122 40.8903C17.3235 40.8903 3.70587 37.6455 3.70587 25.1191C3.70587 12.5926 17.3235 0.424011 34.122 0.424011Z" fill="url(#paint24_linear_1_4502)"/>
<path fill-rule="evenodd" clip-rule="evenodd" d="M34.122 0.436867C50.8388 0.436867 64.3903 12.4811 64.3903 24.7547C64.3903 37.0287 50.8388 39.792 34.122 39.792C17.4055 39.792 3.854 37.0287 3.854 24.7547C3.854 12.4811 17.4055 0.436867 34.122 0.436867Z" fill="url(#paint25_linear_1_4502)"/>
<path fill-rule="evenodd" clip-rule="evenodd" d="M34.122 0.449707C50.7568 0.449707 64.2421 12.3696 64.2421 24.3904C64.2421 36.4115 50.7568 38.6936 34.122 38.6936C17.4875 38.6936 4.00217 36.4115 4.00217 24.3904C4.00217 12.3696 17.4875 0.449707 34.122 0.449707Z" fill="url(#paint26_linear_1_4502)"/>
<path fill-rule="evenodd" clip-rule="evenodd" d="M34.122 0.462563C50.6752 0.462563 64.0936 12.2581 64.0936 24.0264C64.0936 35.7947 50.6752 37.5953 34.122 37.5953C17.5688 37.5953 4.1507 35.7947 4.1507 24.0264C4.1507 12.2581 17.5688 0.462563 34.122 0.462563Z" fill="url(#paint27_linear_1_4502)"/>
<path fill-rule="evenodd" clip-rule="evenodd" d="M34.122 0.475418C50.5935 0.475418 63.9451 12.1466 63.9451 23.6621C63.9451 35.1779 50.5935 36.4973 34.122 36.4973C17.6508 36.4973 4.29926 35.1779 4.29926 23.6621C4.29926 12.1466 17.6508 0.475418 34.122 0.475418Z" fill="url(#paint28_linear_1_4502)"/>
<path fill-rule="evenodd" clip-rule="evenodd" d="M34.122 0.488258C50.5115 0.488258 63.797 12.0351 63.797 23.2977C63.797 34.5607 50.5115 35.399 34.122 35.399C17.7324 35.399 4.44742 34.5607 4.44742 23.2977C4.44742 12.0351 17.7324 0.488258 34.122 0.488258Z" fill="url(#paint29_linear_1_4502)"/>
<path fill-rule="evenodd" clip-rule="evenodd" d="M34.122 0.501114C50.4299 0.501114 63.6488 11.9236 63.6488 22.9334C63.6488 33.9439 50.4299 34.3007 34.122 34.3007C17.8148 34.3007 4.59518 33.9439 4.59518 22.9334C4.59518 11.9236 17.8148 0.501114 34.122 0.501114Z" fill="url(#paint30_linear_1_4502)"/>
<path fill-rule="evenodd" clip-rule="evenodd" d="M34.122 0.513954C50.3475 0.513954 63.501 11.8121 63.501 22.5694C63.501 33.3271 50.3475 33.2023 34.122 33.2023C17.8968 33.2023 4.74335 33.3271 4.74335 22.5694C4.74335 11.8121 17.8968 0.513954 34.122 0.513954Z" fill="url(#paint31_linear_1_4502)"/>
<path fill-rule="evenodd" clip-rule="evenodd" d="M34.122 0.52681C50.2659 0.52681 63.3529 11.7006 63.3529 22.205C63.3529 32.7099 50.2659 32.104 34.122 32.104C17.9781 32.104 4.89151 32.7099 4.89151 22.205C4.89151 11.7006 17.9781 0.52681 34.122 0.52681Z" fill="url(#paint32_linear_1_4502)"/>
<path fill-rule="evenodd" clip-rule="evenodd" d="M34.122 0.539665C50.1842 0.539665 63.2043 11.5891 63.2043 21.8407C63.2043 32.093 50.1842 31.0061 34.122 31.0061C18.0601 31.0061 5.04004 32.093 5.04004 21.8407C5.04004 11.5891 18.0601 0.539665 34.122 0.539665Z" fill="url(#paint33_linear_1_4502)"/>
<path fill-rule="evenodd" clip-rule="evenodd" d="M34.122 0.552513C50.1026 0.552513 63.0561 11.4776 63.0561 21.4767C63.0561 31.4759 50.1026 29.9077 34.122 29.9077C18.1417 29.9077 5.18854 31.4759 5.18854 21.4767C5.18854 11.4776 18.1417 0.552513 34.122 0.552513Z" fill="url(#paint34_linear_1_4502)"/>
<path fill-rule="evenodd" clip-rule="evenodd" d="M34.1212 0.56543C50.0198 0.56543 62.9072 11.3662 62.9072 21.1124C62.9072 30.8591 50.0198 28.8095 34.1212 28.8095C18.2234 28.8095 5.33594 30.8591 5.33594 21.1124C5.33594 11.3662 18.2234 0.56543 34.1212 0.56543Z" fill="#AC0100"/>
<path fill-rule="evenodd" clip-rule="evenodd" d="M88.1914 20.9933H92.1112L93.0171 18.6217H97.1678L98.0734 20.9933H101.993L97.7275 10.7319C97.184 9.44725 96.1957 9.33197 95.0924 9.33197C93.3134 9.33197 92.8191 9.87547 92.457 10.7319L88.1914 20.9933ZM94.9439 13.0711C94.9768 12.9887 95.0426 12.8239 95.0924 12.8239C95.142 12.8239 95.2073 12.9887 95.2406 13.0711L96.2781 15.9862H93.9061L94.9439 13.0711ZM101.664 20.9933L106.094 10.518C106.572 9.39774 107.874 9.33197 108.582 9.33197C109.29 9.33197 110.591 9.39774 111.069 10.518L115.499 20.9933H111.547L108.763 13.3674C108.73 13.3016 108.664 13.0873 108.582 13.0873C108.5 13.0873 108.434 13.3016 108.4 13.3674L105.617 20.9933H101.664ZM122.68 20.9933V12.3299H126.798V9.46387H114.84V12.3299H118.958V20.9933H122.68ZM140.007 20.9933V12.1814C140.007 11.2425 139.909 9.33197 137.273 9.33197C136.598 9.33197 135.511 9.39773 134.786 10.6828L131.607 16.2334C131.459 16.4968 131.377 16.645 131.278 16.645C131.08 16.645 131.08 16.3978 131.08 16.2496C131.08 16.1839 131.08 16.1344 131.08 16.0686L131.245 9.46387H127.457V18.3579C127.457 19.7415 127.753 21.1249 130.026 21.1249C131.623 21.1249 132.201 20.499 132.514 19.9558L135.791 14.3557C136.021 13.9766 136.12 13.7956 136.219 13.7956C136.384 13.7956 136.384 14.0099 136.384 14.2238L136.219 20.9933H140.007ZM154.205 20.9933V12.1814C154.205 11.2425 154.106 9.33197 151.471 9.33197C150.796 9.33197 149.708 9.39773 148.984 10.6828L145.805 16.2334C145.657 16.4968 145.574 16.645 145.476 16.645C145.262 16.645 145.278 16.3487 145.278 16.0686L145.443 9.46387H141.655V18.3579C141.655 19.7415 141.951 21.1249 144.224 21.1249C145.822 21.1249 146.398 20.499 146.711 19.9558L149.989 14.3557C150.219 13.9766 150.318 13.7956 150.416 13.7956C150.581 13.7956 150.581 14.0099 150.581 14.2238L150.416 20.9933H154.205ZM143.598 6.36731H145.92C146.036 6.63074 146.249 6.96032 146.513 7.17462C146.859 7.43805 147.419 7.58621 147.88 7.58621C148.342 7.58621 148.934 7.43805 149.264 7.17462C149.511 6.97695 149.725 6.61449 149.84 6.36731H152.163C151.915 7.09222 151.355 8.04731 150.697 8.54167C149.972 9.08517 148.885 9.33197 147.88 9.33197C146.875 9.33197 145.789 9.08517 145.063 8.54167C144.405 8.04731 143.845 7.09222 143.598 6.36731ZM165.619 20.9933V18.1273H162.424C161.188 18.1273 160.118 18.1273 159.624 17.2214C159.525 17.0237 159.344 16.5958 159.344 15.3108C159.344 14.7511 159.394 13.8122 159.723 13.2358C160.233 12.3133 161.139 12.3299 162.358 12.3299H165.438V9.46387H160.563C159.262 9.46387 157.582 9.61204 156.528 10.9625C155.704 12.0003 155.523 13.4498 155.523 15.3769C155.523 17.5838 155.885 18.7203 156.576 19.5768C157.515 20.7461 158.718 20.9933 160.513 20.9933H165.619ZM167.102 20.9933H170.823V9.46387H167.102V20.9933ZM179.833 20.9933L175.353 16.1181C175.106 15.8547 174.743 15.459 174.743 15.0803C174.743 14.9816 174.793 14.7344 175.221 14.2238L179.224 9.46387H174.809L171.713 13.8122C171.466 14.158 171.186 14.6687 171.186 15.0969C171.186 15.5909 171.581 16.1672 171.861 16.5297L175.353 20.9933H179.833ZM192.713 20.9933V12.1814C192.713 11.2425 192.614 9.33197 189.979 9.33197C189.304 9.33197 188.217 9.39773 187.492 10.6828L184.313 16.2334C184.165 16.4968 184.083 16.645 183.984 16.645C183.786 16.645 183.786 16.3978 183.786 16.2496C183.786 16.1839 183.786 16.1344 183.786 16.0686L183.951 9.46387H180.162V18.3579C180.162 19.7415 180.459 21.1249 182.732 21.1249C184.329 21.1249 184.906 20.499 185.219 19.9558L188.496 14.3557C188.727 13.9766 188.826 13.7956 188.925 13.7956C189.09 13.7956 189.09 14.0099 189.09 14.2238L188.925 20.9933H192.713ZM206.911 20.9933V12.1814C206.911 11.2425 206.812 9.33197 204.176 9.33197C203.501 9.33197 202.414 9.39773 201.689 10.6828L198.511 16.2334C198.363 16.4968 198.28 16.645 198.181 16.645C197.967 16.645 197.984 16.3487 197.984 16.0686L198.148 9.46387H194.36V18.3579C194.36 19.7415 194.657 21.1249 196.93 21.1249C198.527 21.1249 199.104 20.499 199.417 19.9558L202.694 14.3557C202.925 13.9766 203.024 13.7956 203.122 13.7956C203.287 13.7956 203.287 14.0099 203.287 14.2238L203.122 20.9933H206.911ZM196.304 6.36731H198.626C198.741 6.63074 198.955 6.96032 199.219 7.17462C199.565 7.43805 200.125 7.58621 200.586 7.58621C201.047 7.58621 201.64 7.43805 201.97 7.17462C202.217 6.97695 202.431 6.61449 202.546 6.36731H204.868C204.622 7.09222 204.062 8.04731 203.403 8.54167C202.678 9.08517 201.591 9.33197 200.586 9.33197C199.582 9.33197 198.494 9.08517 197.769 8.54167C197.111 8.04731 196.551 7.09222 196.304 6.36731ZM99.5723 34.7826V31.9823H93.9389C93.7088 31.9823 93.4124 31.9989 93.2314 31.8341C93.149 31.7684 93.0666 31.6365 93.0666 31.4059V30.1541H99.358V27.6506H93.0666V26.7779C93.0666 26.6297 93.0666 26.3659 93.2477 26.2178C93.3796 26.1025 93.6097 26.053 93.824 26.053H99.5224V23.2531H91.2381C90.8265 23.2531 90.2664 23.3189 89.8378 23.7142C89.4103 24.1095 89.3438 24.5873 89.3438 25.0318V32.9378C89.3438 33.4813 89.3438 33.9424 89.8714 34.3872C90.3155 34.7493 90.7933 34.7826 91.271 34.7826H99.5723ZM112.353 23.2531H108.631V27.3376H104.448V23.2531H100.725V34.7826H104.448V30.2037H108.631V34.7826H112.353V23.2531ZM120.852 34.7826V26.1187H124.97V23.2531H113.012V26.1187H117.13V34.7826H120.852ZM129.351 34.7826V31.4554H134.21C134.836 31.4554 135.692 31.2907 136.235 30.8296C137.207 29.9894 137.273 28.013 137.273 27.2061C137.273 25.5424 136.96 24.6364 136.416 24.06C135.774 23.3684 134.918 23.2531 133.996 23.2531H127.621C126.831 23.2531 126.337 23.566 126.089 23.8461C125.694 24.2906 125.629 24.9497 125.629 25.4271V34.7826H129.351ZM129.351 28.5898V26.7941C129.351 26.547 129.4 26.1187 129.993 26.1187H132.052C132.48 26.1187 132.909 26.1187 133.221 26.3826C133.518 26.6297 133.551 26.9918 133.551 27.2881C133.551 27.7659 133.435 28.0954 133.255 28.2931C132.941 28.6223 132.48 28.5898 132.019 28.5898H129.351ZM88.1914 48.5718H92.1112L93.0171 46.1998H97.1678L98.0734 48.5718H101.993L97.7275 38.3104C97.184 37.0257 96.1957 36.9104 95.0924 36.9104C93.3134 36.9104 92.8191 37.4539 92.457 38.3104L88.1914 48.5718ZM94.9439 40.6491C94.9768 40.5671 95.0426 40.4023 95.0924 40.4023C95.142 40.4023 95.2073 40.5671 95.2406 40.6491L96.2781 43.5647H93.9061L94.9439 40.6491ZM102.323 48.5718H108.697C109.554 48.5718 110.987 48.6704 111.843 48.0608C112.749 47.4186 112.831 46.2821 112.831 45.4586C112.831 44.8164 112.814 44.1577 112.485 43.5975C112.041 42.8398 111.282 42.7411 110.838 42.7574V42.6916C111.398 42.5929 111.744 42.3129 111.876 42.181C112.468 41.6212 112.518 40.9292 112.518 40.2209C112.518 39.414 112.468 38.4918 111.86 37.8493C111.069 37.0257 109.85 37.0423 108.779 37.0423H102.388V39.908H107.478C108.187 39.908 108.384 39.9412 108.516 39.9904C108.795 40.1223 108.829 40.3528 108.829 40.6163C108.829 40.8139 108.812 41.094 108.615 41.2754C108.368 41.506 107.857 41.4893 107.428 41.4893H102.537V43.9929H107.511C108.187 43.9929 108.5 44.0091 108.697 44.141C108.994 44.3387 109.01 44.6517 109.01 44.8327C109.01 45.0965 108.96 45.3928 108.664 45.5739C108.483 45.6729 108.22 45.7058 107.495 45.7058H102.323V48.5718ZM124.377 48.5718V45.7715H118.744C118.513 45.7715 118.217 45.7882 118.036 45.6234C117.954 45.5576 117.871 45.4257 117.871 45.1952V43.9434H124.163V41.4398H117.871V40.5671C117.871 40.4186 117.871 40.1552 118.052 40.007C118.184 39.8917 118.414 39.8422 118.628 39.8422H124.327V37.0423H116.043C115.631 37.0423 115.071 37.1081 114.642 37.5034C114.215 37.8988 114.148 38.3765 114.148 38.821V46.727C114.148 47.2705 114.148 47.7316 114.676 48.1761C115.12 48.5385 115.598 48.5718 116.076 48.5718H124.377ZM129.252 48.5718V45.2447H134.111C134.737 45.2447 135.593 45.0799 136.137 44.6188C137.108 43.7786 137.174 41.8023 137.174 40.9953C137.174 39.3316 136.862 38.4256 136.318 37.8493C135.675 37.1576 134.819 37.0423 133.897 37.0423H127.523C126.732 37.0423 126.238 37.3553 125.991 37.6353C125.596 38.0798 125.529 38.7386 125.529 39.2163V48.5718H129.252ZM129.252 42.3787V40.5834C129.252 40.3362 129.301 39.908 129.895 39.908H131.953C132.382 39.908 132.809 39.908 133.122 40.1718C133.419 40.4186 133.452 40.781 133.452 41.0774C133.452 41.5551 133.337 41.8847 133.156 42.0823C132.843 42.4115 132.382 42.3787 131.92 42.3787H129.252ZM150.12 37.0423H146.398V41.1269H142.214V37.0423H138.492V48.5718H142.214V43.9929H146.398V48.5718H150.12V37.0423ZM157.779 36.9104C156.034 36.9104 153.974 36.9599 152.739 38.0964C151.488 39.2492 151.438 41.2588 151.438 42.8069C151.438 44.3221 151.488 46.3479 152.739 47.5177C153.958 48.6538 156.066 48.7033 157.779 48.7033C159.492 48.7033 161.6 48.6538 162.819 47.5177C164.071 46.3479 164.12 44.3221 164.12 42.8069C164.12 41.2588 164.071 39.2492 162.819 38.0964C161.584 36.9599 159.525 36.9104 157.779 36.9104ZM155.259 42.8069C155.259 41.8518 155.275 41.2259 155.687 40.6163C156.181 39.8585 156.823 39.7764 157.779 39.7764C158.751 39.7764 159.36 39.8585 159.871 40.6163C160.315 41.2588 160.299 41.8023 160.299 42.8069C160.299 43.7291 160.299 44.3716 159.871 44.9975C159.36 45.7549 158.751 45.8377 157.779 45.8377C156.84 45.8377 156.181 45.7549 155.687 44.9975C155.308 44.4211 155.259 43.7128 155.259 42.8069ZM177.988 48.5718V39.7598C177.988 38.821 177.89 36.9104 175.254 36.9104C174.579 36.9104 173.492 36.9762 172.767 38.2612L169.588 43.8118C169.44 44.0749 169.358 44.2234 169.259 44.2234C169.045 44.2234 169.061 43.9271 169.061 43.6471L169.226 37.0423H165.438V45.9363C165.438 47.3196 165.734 48.7033 168.007 48.7033C169.605 48.7033 170.181 48.0774 170.494 47.5339L173.772 41.9338C174.002 41.5551 174.101 41.3741 174.2 41.3741C174.365 41.3741 174.365 41.588 174.365 41.8023L174.2 48.5718H177.988ZM167.381 33.9458H169.703C169.819 34.2092 170.033 34.5388 170.297 34.7527C170.642 35.0165 171.202 35.1647 171.664 35.1647C172.125 35.1647 172.718 35.0165 173.047 34.7527C173.294 34.5554 173.509 34.1929 173.623 33.9458H175.946C175.699 34.6707 175.139 35.6258 174.48 36.1201C173.755 36.6633 172.668 36.9104 171.664 36.9104C170.659 36.9104 169.572 36.6633 168.847 36.1201C168.188 35.6258 167.628 34.6707 167.381 33.9458ZM99.5723 62.3606V59.5608H93.9389C93.7088 59.5608 93.4124 59.5774 93.2314 59.4126C93.149 59.3468 93.0666 59.2149 93.0666 58.9844V57.7326H99.358V55.229H93.0666V54.3564C93.0666 54.2078 93.0666 53.9444 93.2477 53.7962C93.3796 53.6809 93.6097 53.6314 93.824 53.6314H99.5224V50.8316H91.2381C90.8265 50.8316 90.2664 50.8973 89.8378 51.2927C89.4103 51.688 89.3438 52.1657 89.3438 52.6102V60.5158C89.3438 61.0597 89.3438 61.5208 89.8714 61.9653C90.3155 62.3278 90.7933 62.3606 91.271 62.3606H99.5723ZM100.56 62.3606H106.935C107.791 62.3606 109.224 62.4597 110.08 61.85C110.986 61.2079 111.068 60.0714 111.068 59.2478C111.068 58.6053 111.052 57.9469 110.722 57.3868C110.278 56.629 109.52 56.53 109.076 56.5466V56.4808C109.636 56.3822 109.982 56.1021 110.113 55.9702C110.706 55.4101 110.756 54.7184 110.756 54.0101C110.756 53.2032 110.706 52.281 110.096 51.6385C109.307 50.8149 108.087 50.8316 107.017 50.8316H100.626V53.6972H105.716C106.424 53.6972 106.622 53.7305 106.753 53.7796C107.033 53.9115 107.066 54.1421 107.066 54.4055C107.066 54.6032 107.05 54.8832 106.852 55.0643C106.605 55.2948 106.094 55.2786 105.666 55.2786H100.775V57.7821H105.748C106.424 57.7821 106.736 57.7984 106.935 57.9303C107.231 58.1279 107.247 58.4409 107.247 58.6219C107.247 58.8854 107.198 59.182 106.901 59.3631C106.72 59.4621 106.457 59.495 105.732 59.495H100.56V62.3606ZM112.715 62.3606H116.438V50.8316H112.715V62.3606ZM125.447 62.3606L120.967 57.4854C120.72 57.222 120.358 56.8266 120.358 56.4479C120.358 56.3489 120.407 56.1021 120.836 55.5915L124.838 50.8316H120.424L117.327 55.1795C117.081 55.5257 116.8 56.0364 116.8 56.4642C116.8 56.9586 117.196 57.5349 117.476 57.8974L120.967 62.3606H125.447ZM138.327 62.3606V53.549C138.327 52.6102 138.229 50.6997 135.593 50.6997C134.918 50.6997 133.831 50.7654 133.106 52.0505L129.927 57.6011C129.779 57.8641 129.697 58.0127 129.598 58.0127C129.4 58.0127 129.4 57.7655 129.4 57.6173C129.4 57.5516 129.4 57.502 129.4 57.4363L129.565 50.8316H125.777V59.7255C125.777 61.1088 126.073 62.4925 128.346 62.4925C129.943 62.4925 130.521 61.8666 130.834 61.3231L134.111 55.723C134.341 55.3443 134.44 55.1633 134.539 55.1633C134.704 55.1633 134.704 55.3772 134.704 55.5915L134.539 62.3606H138.327Z" fill="white"/>
<path fill-rule="evenodd" clip-rule="evenodd" d="M56.5671 58.5449L56.5645 58.5472C56.1748 58.9093 55.7768 59.2619 55.3705 59.6051L55.3539 59.6191C55.1819 59.7642 55.0084 59.9074 54.8327 60.0492L54.8058 60.0707C54.3999 60.3984 53.9853 60.717 53.5639 61.0254L53.5166 61.0594C53.1028 61.361 52.6814 61.6536 52.2535 61.9359L52.184 61.9813C52.0045 62.0992 51.8231 62.2156 51.6413 62.3301L51.5521 62.3861C51.3442 62.5157 51.1344 62.6431 50.9239 62.7682L50.8029 62.8396C50.6295 62.9416 50.4553 63.0418 50.2791 63.1408C50.227 63.1703 50.1748 63.1994 50.123 63.2285C49.9496 63.3245 49.7757 63.4198 49.6003 63.5127C49.527 63.552 49.4536 63.5906 49.3796 63.6291C49.2159 63.7149 49.0504 63.7992 48.8848 63.8824C48.8119 63.919 48.7386 63.9553 48.6656 63.9916C48.5126 64.0668 48.3587 64.1413 48.2042 64.2142C48.1097 64.2588 48.0144 64.3034 47.9195 64.3473C47.7733 64.4145 47.6263 64.481 47.4792 64.5464C47.381 64.5899 47.2823 64.633 47.1837 64.6757C47.0404 64.7373 46.8968 64.7981 46.7532 64.8579C46.6425 64.9036 46.5306 64.9493 46.4187 64.9943C46.2925 65.0453 46.1651 65.0952 46.0377 65.1447C45.9153 65.1924 45.7921 65.2392 45.6688 65.2853C45.5388 65.3337 45.4084 65.3817 45.2777 65.4286C45.1461 65.4754 45.0154 65.5219 44.8831 65.5673C44.7659 65.6081 44.6472 65.6478 44.5289 65.6871C44.3917 65.7328 44.2542 65.7774 44.1155 65.8213C44.0096 65.8549 43.903 65.8885 43.7965 65.9211C40.7452 66.8554 37.5047 67.3592 34.147 67.3592C31.7761 67.3592 29.4634 67.1063 27.2346 66.6301V60.22C28.1587 60.0597 28.9149 59.4085 29.2249 58.5449H56.5671ZM26.3226 66.4211C20.9307 65.1069 16.0596 62.4666 12.0734 58.8643C11.9589 58.7592 11.8451 58.6542 11.7313 58.5487L11.7275 58.5449H24.3553C24.663 59.4014 25.4083 60.0488 26.3226 60.2158V66.4211Z" fill="#C70100"/>
<path fill-rule="evenodd" clip-rule="evenodd" d="M34.1469 1.50085C34.1869 1.50085 34.2259 1.50237 34.2655 1.50237V3.44807H33.6374V9.69071L33.3468 9.97078V14.3082L37.039 17.102L37.0329 17.1099H37.039V18.2476C37.511 18.3753 37.8588 18.8066 37.8588 19.3194C37.8588 19.8323 37.511 20.2636 37.039 20.3913V21.9182C37.48 22.0653 37.799 22.4814 37.799 22.972C37.799 23.4626 37.48 23.8787 37.039 24.0257V25.3958V25.3988H37.0352L33.3468 28.1896V35.9429H34.1469V40.6333H33.3468V45.5361H33.346L33.3468 45.5376L32.2405 46.3752C32.2923 46.5037 32.3202 46.6435 32.3202 46.7902C32.3202 47.4036 31.8236 47.9006 31.2102 47.9006C30.5971 47.9006 30.1005 47.4036 30.1005 46.7902C30.1005 46.1768 30.5971 45.6797 31.2102 45.6797C31.4661 45.6797 31.7015 45.7667 31.8897 45.9122L32.7658 45.2489V40.6333H31.9759V35.9429H32.7658V27.9005V27.9001H32.7662L36.4577 25.1067V24.0582C35.955 23.9524 35.5778 23.506 35.5778 22.972C35.5778 22.4379 35.955 21.9919 36.4577 21.8857V20.3913C35.986 20.2636 35.6383 19.8323 35.6383 19.3194C35.6383 18.8066 35.986 18.3753 36.4577 18.2476V17.3907L32.7685 14.5992H32.7658V14.5973V10.5313L32.4755 10.8113V3.44807H31.8572V1.58135C32.6143 1.52957 33.377 1.50085 34.1469 1.50085ZM35.2565 1.52164V11.0846L38.369 13.3262V26.0587L35.2565 28.4663V45.5361L41.4822 36.1482V28.9603L43.1425 27.6881V12.9112L41.4822 11.5578V2.32215C39.4707 1.86444 37.3893 1.59232 35.2565 1.52164ZM12.1047 9.96813C13.9941 8.26432 16.0826 6.77632 18.3303 5.54268V11.0846L15.2171 13.3262V26.0587L18.3303 28.4663V45.5361L12.1047 36.1482V28.9603L10.4443 27.6881V12.9112L12.1047 11.5578V9.96813ZM19.9494 4.71156V9.69071L20.2397 9.97078V14.3082L16.5475 17.102L16.5539 17.1099H16.5475V18.2476C16.0758 18.3753 15.7281 18.8066 15.7281 19.3194C15.7281 19.8323 16.0758 20.2636 16.5475 20.3913V21.9182C16.106 22.0653 15.7878 22.4814 15.7878 22.972C15.7878 23.4626 16.106 23.8787 16.5475 24.0257V25.3958V25.3988H16.5513L20.2397 28.1896V35.9429H19.44V40.6333H20.2397V45.5361H20.2408L20.2397 45.5376L21.3464 46.3752C21.2942 46.5037 21.2663 46.6435 21.2663 46.7902C21.2663 47.4036 21.7629 47.9006 22.3759 47.9006C22.9897 47.9006 23.4863 47.4036 23.4863 46.7902C23.4863 46.1768 22.9897 45.6797 22.3759 45.6797C22.12 45.6797 21.8853 45.7667 21.6971 45.9122L20.821 45.2489V40.6333H21.6109V35.9429H20.821V27.9005V27.9001H20.8207L17.1292 25.1067V24.0582C17.6315 23.9524 18.009 23.506 18.009 22.972C18.009 22.4379 17.6315 21.9919 17.1292 21.8857V20.3913C17.6008 20.2636 17.9482 19.8323 17.9482 19.3194C17.9482 18.8066 17.6008 18.3753 17.1292 18.2476V17.3907L20.8187 14.5992H20.821V14.5973V10.5313L21.1113 10.8113V4.18432C20.7205 4.35289 20.3323 4.52825 19.9494 4.71156Z" fill="#FEFEFE"/>
<path fill-rule="evenodd" clip-rule="evenodd" d="M20.2934 55.208C20.9095 55.4699 21.3891 55.7288 21.3645 55.7859C21.34 55.8433 20.8211 55.6774 20.2054 55.4155C19.5893 55.1536 19.1101 54.8947 19.1339 54.8376C19.1588 54.7805 19.6778 54.9461 20.2934 55.208ZM9.93565 53.4788C10.224 53.5635 10.4519 53.6542 10.4436 53.6807C10.436 53.7075 10.1957 53.661 9.90653 53.5764C9.61815 53.4917 9.39064 53.4014 9.39858 53.3745C9.40614 53.3477 9.64651 53.3946 9.93565 53.4788ZM16.3937 54.3254C16.5411 54.3614 16.6575 54.4014 16.6541 54.4154C16.6511 54.4286 16.5286 54.4109 16.3816 54.375C16.235 54.3391 16.1186 54.2986 16.1216 54.285C16.1254 54.2714 16.2467 54.2895 16.3937 54.3254ZM13.9707 51.4814C14.1052 51.5501 14.2095 51.6163 14.2035 51.6288C14.1967 51.6412 14.0821 51.5955 13.9476 51.5267C13.8127 51.4576 13.7091 51.3918 13.7152 51.3789C13.7216 51.3665 13.8357 51.4122 13.9707 51.4814ZM14.5463 49.3663C15.0879 49.7598 15.4972 50.1192 15.4605 50.1695C15.4239 50.2198 14.9556 49.942 14.4136 49.5489C13.872 49.1558 13.4627 48.7964 13.4994 48.7457C13.536 48.6955 14.0047 48.9736 14.5463 49.3663ZM24.5295 55.3875C24.6584 55.4741 24.7612 55.5606 24.7597 55.5814C24.7586 55.6018 24.6531 55.5481 24.5243 55.4616C24.3958 55.375 24.2926 55.2881 24.2945 55.2677C24.2956 55.2473 24.4007 55.3009 24.5295 55.3875ZM12.8871 52.9384C13.5031 53.2003 13.9824 53.4592 13.9586 53.5163C13.9336 53.5737 13.4147 53.4078 12.7994 53.1459C12.1829 52.8839 11.7033 52.625 11.7279 52.568C11.7525 52.5109 12.2718 52.6768 12.8871 52.9384ZM18.1871 55.5372C18.3768 55.5927 18.5261 55.6521 18.5212 55.6698C18.5163 55.6876 18.3583 55.6566 18.1682 55.601C17.9781 55.5455 17.8284 55.4858 17.8337 55.4684C17.8394 55.4506 17.9974 55.4816 18.1871 55.5372ZM17.836 51.1786C17.9649 51.2652 18.0681 51.3521 18.0662 51.3725C18.0654 51.3929 17.9596 51.3396 17.8311 51.2527C17.7029 51.1665 17.5998 51.0796 17.6009 51.0592C17.6024 51.0384 17.7075 51.0921 17.836 51.1786ZM19.8607 52.8926C19.9956 52.9614 20.0992 53.0276 20.0931 53.04C20.0867 53.0525 19.9722 53.0068 19.8376 52.938C19.7027 52.8692 19.5984 52.8031 19.6048 52.7906C19.6116 52.7781 19.7257 52.8235 19.8607 52.8926ZM17.7691 53.7302C18.0575 53.8148 18.2854 53.9052 18.2771 53.932C18.2695 53.9588 18.0291 53.912 17.74 53.8273C17.4516 53.7427 17.2245 53.6523 17.232 53.6255C17.2396 53.5986 17.4803 53.6455 17.7691 53.7302ZM16.6609 52.2308C17.0657 52.4028 17.3809 52.5729 17.3647 52.6107C17.3488 52.6481 17.0079 52.5392 16.6035 52.3673C16.1987 52.1949 15.8835 52.0249 15.8994 51.9874C15.9156 51.95 16.2561 52.0589 16.6609 52.2308ZM21.0705 54.025C21.1994 54.1115 21.3026 54.1981 21.3007 54.2189C21.2999 54.2393 21.1941 54.186 21.0656 54.0994C20.9371 54.0125 20.8343 53.926 20.835 53.9055C20.8366 53.8851 20.942 53.9384 21.0705 54.025ZM23.1379 55.7666C23.2479 55.8229 23.3326 55.8766 23.3277 55.8868C23.322 55.897 23.229 55.8596 23.1186 55.8036C23.0086 55.7473 22.924 55.6933 22.9297 55.6831C22.9346 55.6728 23.0283 55.7103 23.1379 55.7666ZM21.0036 56.5765C21.292 56.6612 21.5199 56.7515 21.5116 56.7784C21.504 56.8052 21.2636 56.7583 20.9753 56.6737C20.6861 56.589 20.459 56.4987 20.4665 56.4718C20.4745 56.445 20.7149 56.4919 21.0036 56.5765Z" fill="#FEFEFE"/>
<path fill-rule="evenodd" clip-rule="evenodd" d="M27.2368 7.71545V8.76427H26.3483V7.71545H27.2368Z" fill="#E99798"/>
<path fill-rule="evenodd" clip-rule="evenodd" d="M27.2368 8.76428V9.8131H26.3483V8.76428H27.2368Z" fill="#EFB9B9"/>
<path fill-rule="evenodd" clip-rule="evenodd" d="M27.2368 9.81311V10.8616H26.3483V9.81311H27.2368Z" fill="#F6D5D6"/>
<path fill-rule="evenodd" clip-rule="evenodd" d="M27.2368 10.8616C27.8056 11.0483 28.2172 11.5835 28.2172 12.215C28.2172 12.8424 27.8105 13.375 27.2474 13.5647H26.3384C25.7745 13.375 25.369 12.8424 25.369 12.215C25.369 11.5835 25.7798 11.0483 26.3482 10.8616H27.2368Z" fill="#FEFEFE"/>
<path fill-rule="evenodd" clip-rule="evenodd" d="M27.2477 13.5647L27.2371 13.5681V14.6135H26.3485V13.5681L26.3387 13.5647H27.2477Z" fill="#F6D5D6"/>
<path fill-rule="evenodd" clip-rule="evenodd" d="M27.2368 14.6135V15.662H26.3483V14.6135H27.2368Z" fill="#EFB9B9"/>
<path fill-rule="evenodd" clip-rule="evenodd" d="M27.2368 15.6619V16.7107H26.3483V15.6619H27.2368Z" fill="#E99798"/>
<path fill-rule="evenodd" clip-rule="evenodd" d="M27.2368 16.7107V30.2051H26.3483V16.7107H27.2368Z" fill="#C70100"/>
<path fill-rule="evenodd" clip-rule="evenodd" d="M27.2368 30.2052V31.254H26.3483V30.2052H27.2368Z" fill="#E99798"/>
<path fill-rule="evenodd" clip-rule="evenodd" d="M27.2368 31.254V32.3025H26.3483V31.254H27.2368Z" fill="#EFB9B9"/>
<path fill-rule="evenodd" clip-rule="evenodd" d="M27.2368 32.3025V33.3513H26.3483V32.3025H27.2368Z" fill="#F6D5D6"/>
<path fill-rule="evenodd" clip-rule="evenodd" d="M27.2368 33.3512V33.3591C27.8056 33.5458 28.2172 34.0814 28.2172 34.7126C28.2172 35.3313 27.8219 35.8578 27.2708 36.0543H26.315C25.7639 35.8578 25.369 35.3313 25.369 34.7126C25.369 34.0814 25.7798 33.5458 26.3482 33.3591V33.3512H27.2368Z" fill="#FEFEFE"/>
<path fill-rule="evenodd" clip-rule="evenodd" d="M27.2711 36.0543L27.2371 36.0657V37.1028H26.3485V36.0657L26.3152 36.0543H27.2711Z" fill="#F6D5D6"/>
<path fill-rule="evenodd" clip-rule="evenodd" d="M27.2368 37.1028V38.1516H26.3483V37.1028H27.2368Z" fill="#EFB9B9"/>
<path fill-rule="evenodd" clip-rule="evenodd" d="M27.2368 38.1516V39.2004H26.3483V38.1516H27.2368Z" fill="#E99798"/>
<path fill-rule="evenodd" clip-rule="evenodd" d="M27.2368 39.2004V53.2879H26.3483V39.2004H27.2368Z" fill="#C70100"/>
<path fill-rule="evenodd" clip-rule="evenodd" d="M27.4194 56.434C27.8918 56.6656 28.2172 57.1509 28.2172 57.7126C28.2172 58.4991 27.5796 59.1367 26.7931 59.1367C26.0066 59.1367 25.369 58.4991 25.369 57.7126C25.369 57.1509 25.6936 56.6656 26.1664 56.434H27.4194Z" fill="#FEFEFE"/>
<path fill-rule="evenodd" clip-rule="evenodd" d="M27.2372 55.3851V56.3595C27.3003 56.3803 27.3612 56.4048 27.4197 56.434H26.1668C26.225 56.4048 26.2863 56.3803 26.3486 56.3595V55.3851H27.2372Z" fill="#F6D5D6"/>
<path fill-rule="evenodd" clip-rule="evenodd" d="M27.2368 54.3363V55.3851H26.3483V54.3363H27.2368Z" fill="#EFB9B9"/>
<path fill-rule="evenodd" clip-rule="evenodd" d="M27.2368 53.2878V54.3363H26.3483V53.2878H27.2368Z" fill="#E99798"/>
<path fill-rule="evenodd" clip-rule="evenodd" d="M26.3494 7.71546H27.2376V2.22986C26.9398 2.29335 26.6442 2.36138 26.3494 2.43319V7.71546Z" fill="#C70100"/>
<path fill-rule="evenodd" clip-rule="evenodd" d="M87.4956 9.42346H78.3714C77.9599 9.42346 76.5762 9.52248 76.5762 11.2682V19.3387C76.5762 20.2779 77.2353 20.9529 78.1904 20.9529H85.6516C86.7881 20.9529 87.3803 20.2612 87.5289 20.0636C88.089 19.3387 88.1714 18.2683 88.1714 17.28C88.1714 16.5059 88.1219 15.2708 87.5126 14.5625C87.1664 14.1671 86.5076 13.8047 85.6183 13.8047H80.299V12.9811C80.299 12.5529 80.3157 12.2895 81.0066 12.2895H87.4956V9.42346ZM80.299 16.3082H83.2796C83.4939 16.3082 83.8559 16.3082 84.1031 16.5059C84.3499 16.687 84.3499 16.9013 84.3499 17.1647C84.3499 17.3624 84.3499 17.6753 84.1364 17.873C83.9054 18.0873 83.4939 18.0873 83.2796 18.0873H81.0893C80.5624 18.0873 80.299 18.1364 80.299 17.3295V16.3082Z" fill="#C70100"/>
<path fill-rule="evenodd" clip-rule="evenodd" d="M89.7603 34.7924L91.3198 31.9264H88.2122V23.2629H84.4902V31.9264H81.1793C81.0482 31.9264 80.6033 31.9264 80.4226 31.7287C80.2578 31.5477 80.2741 31.1194 80.2741 30.856V23.2629H76.5516V32.6842C76.5516 33.211 76.6174 33.8864 77.1447 34.3642C77.6549 34.8253 78.1988 34.7924 78.7922 34.7924H89.7603Z" fill="#C70100"/>
<path fill-rule="evenodd" clip-rule="evenodd" d="M75.2422 48.5752H79.1952L81.9781 40.9492C82.0117 40.8835 82.0775 40.6692 82.1599 40.6692C82.2423 40.6692 82.308 40.8835 82.3405 40.9492L85.1245 48.5752H89.0771L84.6468 38.0998C84.1691 36.9796 82.8682 36.9138 82.1599 36.9138C81.4516 36.9138 80.1507 36.9796 79.6729 38.0998L75.2422 48.5752Z" fill="#C70100"/>
<path fill-rule="evenodd" clip-rule="evenodd" d="M80.2741 62.372V59.0449H85.1327C85.7582 59.0449 86.6146 58.8801 87.1585 58.419C88.1298 57.5792 88.196 55.6025 88.196 54.7955C88.196 53.1322 87.883 52.2258 87.3392 51.6495C86.697 50.9578 85.841 50.8425 84.9184 50.8425H78.5446C77.7539 50.8425 77.2595 51.1555 77.0127 51.4355C76.6174 51.88 76.5516 52.5392 76.5516 53.0169V62.372H80.2741ZM80.2741 56.1792V54.3836C80.2741 54.1364 80.3236 53.7085 80.9166 53.7085H82.975C83.4032 53.7085 83.831 53.7085 84.1439 53.972C84.4406 54.2192 84.4735 54.5812 84.4735 54.8779C84.4735 55.3553 84.3582 55.6849 84.1776 55.8825C83.8642 56.2117 83.4032 56.1792 82.9417 56.1792H80.2741Z" fill="#C70100"/>
<defs>
<linearGradient id="paint0_linear_1_4502" x1="34.1224" y1="27" x2="34.1224" y2="59" gradientUnits="userSpaceOnUse">
<stop stop-color="#AC0100"/>
<stop offset="1"/>
</linearGradient>
<linearGradient id="paint1_linear_1_4502" x1="34.1224" y1="27" x2="34.1224" y2="59" gradientUnits="userSpaceOnUse">
<stop stop-color="#AC0100"/>
<stop offset="1"/>
</linearGradient>
<linearGradient id="paint2_linear_1_4502" x1="34.1224" y1="27" x2="34.1224" y2="59" gradientUnits="userSpaceOnUse">
<stop stop-color="#AC0100"/>
<stop offset="1"/>
</linearGradient>
<linearGradient id="paint3_linear_1_4502" x1="34.1224" y1="27" x2="34.1224" y2="59" gradientUnits="userSpaceOnUse">
<stop stop-color="#AC0100"/>
<stop offset="1"/>
</linearGradient>
<linearGradient id="paint4_linear_1_4502" x1="34.1224" y1="27" x2="34.1224" y2="59" gradientUnits="userSpaceOnUse">
<stop stop-color="#AC0100"/>
<stop offset="1"/>
</linearGradient>
<linearGradient id="paint5_linear_1_4502" x1="34.1224" y1="27" x2="34.1224" y2="59" gradientUnits="userSpaceOnUse">
<stop stop-color="#AC0100"/>
<stop offset="1"/>
</linearGradient>
<linearGradient id="paint6_linear_1_4502" x1="34.1224" y1="27" x2="34.1224" y2="59" gradientUnits="userSpaceOnUse">
<stop stop-color="#AC0100"/>
<stop offset="1"/>
</linearGradient>
<linearGradient id="paint7_linear_1_4502" x1="34.1224" y1="27" x2="34.1224" y2="59" gradientUnits="userSpaceOnUse">
<stop stop-color="#AC0100"/>
<stop offset="1"/>
</linearGradient>
<linearGradient id="paint8_linear_1_4502" x1="34.1224" y1="27" x2="34.1224" y2="59" gradientUnits="userSpaceOnUse">
<stop stop-color="#AC0100"/>
<stop offset="1"/>
</linearGradient>
<linearGradient id="paint9_linear_1_4502" x1="34.1224" y1="27" x2="34.1224" y2="59" gradientUnits="userSpaceOnUse">
<stop stop-color="#AC0100"/>
<stop offset="1"/>
</linearGradient>
<linearGradient id="paint10_linear_1_4502" x1="34.1224" y1="27" x2="34.1224" y2="59" gradientUnits="userSpaceOnUse">
<stop stop-color="#AC0100"/>
<stop offset="1"/>
</linearGradient>
<linearGradient id="paint11_linear_1_4502" x1="34.1224" y1="27" x2="34.1224" y2="59" gradientUnits="userSpaceOnUse">
<stop stop-color="#AC0100"/>
<stop offset="1"/>
</linearGradient>
<linearGradient id="paint12_linear_1_4502" x1="34.1224" y1="27" x2="34.1224" y2="59" gradientUnits="userSpaceOnUse">
<stop stop-color="#AC0100"/>
<stop offset="1"/>
</linearGradient>
<linearGradient id="paint13_linear_1_4502" x1="34.1224" y1="27" x2="34.1224" y2="59" gradientUnits="userSpaceOnUse">
<stop stop-color="#AC0100"/>
<stop offset="1"/>
</linearGradient>
<linearGradient id="paint14_linear_1_4502" x1="34.1224" y1="27" x2="34.1224" y2="59" gradientUnits="userSpaceOnUse">
<stop stop-color="#AC0100"/>
<stop offset="1"/>
</linearGradient>
<linearGradient id="paint15_linear_1_4502" x1="34.1224" y1="27" x2="34.1224" y2="59" gradientUnits="userSpaceOnUse">
<stop stop-color="#AC0100"/>
<stop offset="1"/>
</linearGradient>
<linearGradient id="paint16_linear_1_4502" x1="34.1224" y1="27" x2="34.1224" y2="59" gradientUnits="userSpaceOnUse">
<stop stop-color="#AC0100"/>
<stop offset="1"/>
</linearGradient>
<linearGradient id="paint17_linear_1_4502" x1="34.1224" y1="27" x2="34.1224" y2="59" gradientUnits="userSpaceOnUse">
<stop stop-color="#AC0100"/>
<stop offset="1"/>
</linearGradient>
<linearGradient id="paint18_linear_1_4502" x1="34.1224" y1="27" x2="34.1224" y2="59" gradientUnits="userSpaceOnUse">
<stop stop-color="#AC0100"/>
<stop offset="1"/>
</linearGradient>
<linearGradient id="paint19_linear_1_4502" x1="34.1224" y1="27" x2="34.1224" y2="59" gradientUnits="userSpaceOnUse">
<stop stop-color="#AC0100"/>
<stop offset="1"/>
</linearGradient>
<linearGradient id="paint20_linear_1_4502" x1="34.1224" y1="27" x2="34.1224" y2="59" gradientUnits="userSpaceOnUse">
<stop stop-color="#AC0100"/>
<stop offset="1"/>
</linearGradient>
<linearGradient id="paint21_linear_1_4502" x1="34.1224" y1="27" x2="34.1224" y2="59" gradientUnits="userSpaceOnUse">
<stop stop-color="#AC0100"/>
<stop offset="1"/>
</linearGradient>
<linearGradient id="paint22_linear_1_4502" x1="34.1224" y1="27" x2="34.1224" y2="59" gradientUnits="userSpaceOnUse">
<stop stop-color="#AC0100"/>
<stop offset="1"/>
</linearGradient>
<linearGradient id="paint23_linear_1_4502" x1="34.1224" y1="27" x2="34.1224" y2="59" gradientUnits="userSpaceOnUse">
<stop stop-color="#AC0100"/>
<stop offset="1"/>
</linearGradient>
<linearGradient id="paint24_linear_1_4502" x1="34.1224" y1="27" x2="34.1224" y2="59" gradientUnits="userSpaceOnUse">
<stop stop-color="#AC0100"/>
<stop offset="1"/>
</linearGradient>
<linearGradient id="paint25_linear_1_4502" x1="34.1224" y1="27" x2="34.1224" y2="59" gradientUnits="userSpaceOnUse">
<stop stop-color="#AC0100"/>
<stop offset="1"/>
</linearGradient>
<linearGradient id="paint26_linear_1_4502" x1="34.1224" y1="27" x2="34.1224" y2="59" gradientUnits="userSpaceOnUse">
<stop stop-color="#AC0100"/>
<stop offset="1"/>
</linearGradient>
<linearGradient id="paint27_linear_1_4502" x1="34.1224" y1="27" x2="34.1224" y2="59" gradientUnits="userSpaceOnUse">
<stop stop-color="#AC0100"/>
<stop offset="1"/>
</linearGradient>
<linearGradient id="paint28_linear_1_4502" x1="34.1224" y1="27" x2="34.1224" y2="59" gradientUnits="userSpaceOnUse">
<stop stop-color="#AC0100"/>
<stop offset="1"/>
</linearGradient>
<linearGradient id="paint29_linear_1_4502" x1="34.1224" y1="27" x2="34.1224" y2="59" gradientUnits="userSpaceOnUse">
<stop stop-color="#AC0100"/>
<stop offset="1"/>
</linearGradient>
<linearGradient id="paint30_linear_1_4502" x1="34.1224" y1="27" x2="34.1224" y2="59" gradientUnits="userSpaceOnUse">
<stop stop-color="#AC0100"/>
<stop offset="1"/>
</linearGradient>
<linearGradient id="paint31_linear_1_4502" x1="34.1224" y1="27" x2="34.1224" y2="59" gradientUnits="userSpaceOnUse">
<stop stop-color="#AC0100"/>
<stop offset="1"/>
</linearGradient>
<linearGradient id="paint32_linear_1_4502" x1="34.1224" y1="27" x2="34.1224" y2="59" gradientUnits="userSpaceOnUse">
<stop stop-color="#AC0100"/>
<stop offset="1"/>
</linearGradient>
<linearGradient id="paint33_linear_1_4502" x1="34.1224" y1="27" x2="34.1224" y2="59" gradientUnits="userSpaceOnUse">
<stop stop-color="#AC0100"/>
<stop offset="1"/>
</linearGradient>
<linearGradient id="paint34_linear_1_4502" x1="34.1224" y1="27" x2="34.1224" y2="59" gradientUnits="userSpaceOnUse">
<stop stop-color="#AC0100"/>
<stop offset="1"/>
</linearGradient>
</defs>
</svg>
