<svg width="49" height="49" viewBox="0 0 49 49" fill="none" xmlns="http://www.w3.org/2000/svg">
<path style="mix-blend-mode:screen" d="M48.481 24.1955C48.4889 28.9905 47.0739 33.68 44.415 37.6707C41.7562 41.6614 37.9731 44.7739 33.5445 46.6143C29.1158 48.4547 24.2406 48.9403 19.5358 48.0097C14.831 47.079 10.508 44.7739 7.11394 41.3861C3.71987 37.9983 1.40724 33.6801 0.468696 28.9778C-0.46985 24.2755 0.00787383 19.4006 1.84141 14.9698C3.67494 10.5391 6.78188 6.75171 10.7691 4.08694C14.7563 1.42216 19.4445 -0.000252977 24.2405 -0.000259399C30.6626 -0.000267999 36.8223 2.54765 41.3671 7.08409C45.912 11.6205 48.4705 17.7747 48.481 24.1955Z" fill="url(#paint0_radial_1_2358)"/>
<defs>
<radialGradient id="paint0_radial_1_2358" cx="0" cy="0" r="1" gradientUnits="userSpaceOnUse" gradientTransform="translate(24.2404 24.1504) scale(15.9131 15.9098)">
<stop offset="0.18" stop-color="#686868"/>
<stop offset="0.19" stop-color="#FF8E8E"/>
<stop offset="0.2" stop-color="#6A6A6A"/>
<stop offset="0.22" stop-color="#505050"/>
<stop offset="0.25" stop-color="#585858"/>
<stop offset="0.3" stop-color="#3E3E3E"/>
<stop offset="0.37" stop-color="#313131"/>
<stop offset="0.45" stop-color="#292929"/>
<stop offset="0.52" stop-color="#242424"/>
<stop offset="0.6" stop-color="#161616"/>
<stop offset="0.68"/>
<stop offset="0.77"/>
<stop offset="0.87"/>
<stop offset="1"/>
</radialGradient>
</defs>
</svg>
