<svg width="49" height="49" viewBox="0 0 49 49" fill="none" xmlns="http://www.w3.org/2000/svg">
<path style="mix-blend-mode:screen" d="M48.481 24.1957C48.4889 28.9907 47.0739 33.6802 44.415 37.6709C41.7562 41.6616 37.9731 44.7741 33.5445 46.6145C29.1158 48.4549 24.2406 48.9406 19.5358 48.0099C14.831 47.0793 10.508 44.7742 7.11394 41.3864C3.71987 37.9986 1.40724 33.6803 0.468696 28.978C-0.46985 24.2758 0.00787383 19.4008 1.84141 14.9701C3.67494 10.5394 6.78188 6.75197 10.7691 4.08719C14.7563 1.42242 19.4445 6.4221e-06 24.2405 0C30.6626 -8.59949e-06 36.8223 2.54791 41.3671 7.08435C45.912 11.6208 48.4705 17.775 48.481 24.1957Z" fill="url(#paint0_radial_1_1791)"/>
<defs>
<radialGradient id="paint0_radial_1_1791" cx="0" cy="0" r="1" gradientUnits="userSpaceOnUse" gradientTransform="translate(24.2405 24.1957) scale(15.9091 15.9057)">
<stop offset="0.18" stop-color="white"/>
<stop offset="0.19" stop-color="#FF8E8E"/>
<stop offset="0.2" stop-color="#FF0000"/>
<stop offset="0.22" stop-color="#FF0000"/>
<stop offset="0.25" stop-color="#FF0000"/>
<stop offset="0.3" stop-color="#D30000"/>
<stop offset="0.37" stop-color="#A20000"/>
<stop offset="0.45" stop-color="#770000"/>
<stop offset="0.52" stop-color="#520000"/>
<stop offset="0.6" stop-color="#340000"/>
<stop offset="0.68" stop-color="#1D0000"/>
<stop offset="0.77" stop-color="#0D0000"/>
<stop offset="0.87" stop-color="#030000"/>
<stop offset="1"/>
</radialGradient>
</defs>
</svg>
