<svg width="67" height="68" viewBox="0 0 67 68" fill="none" xmlns="http://www.w3.org/2000/svg">
<path d="M59.1165 3.48272V2.98272V1.12916C59.1165 0.962132 59.1828 0.802049 59.3006 0.684098L58.9478 0.331619L59.3006 0.684095C59.4184 0.566163 59.5781 0.5 59.7445 0.5H65.7004C65.8668 0.5 66.0265 0.566169 66.1443 0.684095L66.4979 0.330818L66.1443 0.684101C66.2621 0.802033 66.3284 0.962107 66.3284 1.12916V7.09287C66.3284 7.25992 66.2621 7.41999 66.1443 7.53793L66.4922 7.88551L66.1443 7.53793C66.0265 7.65586 65.8668 7.72203 65.7004 7.72203H59.7445C59.5781 7.72203 59.4184 7.65587 59.3006 7.53793L58.9583 7.8799L59.3006 7.53793C59.1828 7.41998 59.1165 7.2599 59.1165 7.09287V5.24104V4.74104H58.6165H41.7831L41.6155 5.71212C50.6898 8.94029 57.3885 17.3737 58.2397 27.4858L58.2783 27.9438H58.7379H61.4434C61.6098 27.9438 61.7695 28.01 61.8873 28.1279C62.0052 28.2459 62.0715 28.406 62.0715 28.573V34.5367C62.0715 34.7037 62.0052 34.8638 61.8873 34.9818C61.7695 35.0997 61.6098 35.1658 61.4434 35.1658H55.4858C55.3194 35.1658 55.1597 35.0997 55.0419 34.9818C54.9241 34.8638 54.8578 34.7037 54.8578 34.5367V28.5782C54.8578 28.4112 54.9241 28.2511 55.0419 28.1331C55.1597 28.0152 55.3194 27.949 55.4858 27.949H56.4733H57.0213L56.9712 27.4033C55.9774 16.587 47.958 7.8321 37.6146 5.93745L37.0245 5.82936V6.42927V7.08766C37.0245 7.25468 36.9582 7.41477 36.8403 7.53272C36.7225 7.65065 36.5629 7.71682 36.3965 7.71682H30.4389C30.2725 7.71682 30.1128 7.65065 29.995 7.53272C29.8771 7.41477 29.8108 7.25468 29.8108 7.08766V6.42406V5.82383L29.2205 5.93229C18.879 7.83223 10.8579 16.5939 9.86417 27.398L9.81396 27.9438H10.3621H11.3495C11.5159 27.9438 11.6756 28.01 11.7934 28.1279C11.9112 28.2459 11.9775 28.406 11.9775 28.573V34.5367C11.9775 34.7037 11.9112 34.8638 11.7934 34.9818C11.6756 35.0997 11.5159 35.1658 11.3495 35.1658H5.38668C5.22028 35.1658 5.0606 35.0997 4.94279 34.9818C4.82496 34.8638 4.75867 34.7037 4.75867 34.5367V28.573C4.75867 28.406 4.82496 28.2459 4.94279 28.1279C5.0606 28.01 5.22028 27.9438 5.38668 27.9438H8.09215H8.55191L8.5904 27.4857C9.43984 17.374 16.1401 8.94719 25.2149 5.71201L25.047 4.74104H8.21364H7.71364V5.24104V7.09287C7.71364 7.25989 7.64735 7.41998 7.52952 7.53793C7.41171 7.65587 7.25203 7.72203 7.08564 7.72203H1.12801C0.961615 7.72203 0.801934 7.65587 0.68412 7.53793C0.566289 7.41998 0.5 7.25989 0.5 7.09287V1.12916C0.5 0.962133 0.566289 0.802049 0.68412 0.684097C0.801934 0.566162 0.961615 0.5 1.12801 0.5H7.08564C7.25203 0.5 7.41171 0.566162 7.52952 0.684096C7.64735 0.802049 7.71364 0.962133 7.71364 1.12916V2.98272V3.48272H8.21364H29.3108H29.8108V2.98272V1.12916C29.8108 0.962132 29.8771 0.802048 29.995 0.684098C30.1128 0.566162 30.2725 0.5 30.4389 0.5H36.393C36.5594 0.5 36.7191 0.566162 36.8369 0.684095C36.9547 0.802047 37.021 0.962132 37.021 1.12916V2.98272V3.48272H37.521H58.6165H59.1165ZM5.95763 6.46371H6.45763V5.96371V2.98272V2.25832V1.75832H5.95763H2.25601H1.75601V2.25832V5.96371V6.46371H2.25601H5.95763ZM10.218 33.9075H10.718V33.4075V29.7021V29.2021H10.218H6.51642H6.01642V29.7021V33.4075V33.9075H6.51642H10.218ZM35.265 6.46371H35.765V5.96371V2.98272V2.25832V1.75832H35.265H31.5634H31.0634V2.25832V5.96371V6.46371H31.5634H35.265ZM56.6104 29.2021H56.1104V29.7021V33.4075V33.9075H56.6104H60.312H60.812V33.4075V29.7021V29.2021H60.312H56.6104ZM64.5723 6.46371H65.0723V5.96371V2.98272V2.25832V1.75832H64.5723H60.8725H60.3725V2.25832V5.96371V6.46371H60.8725H64.5723Z" stroke="#C70100"/>
<path d="M39.4568 30.4768L39.4579 30.4792C40.6014 32.9669 42.2304 35.5556 43.5706 37.5205C44.2421 38.5051 44.844 39.3372 45.2807 39.9269C45.4992 40.2218 45.6764 40.4563 45.8004 40.619C45.9334 40.7934 45.9898 40.8655 45.9895 40.8651L45.9957 40.8738L46.0023 40.8821C46.0627 40.9591 46.1045 41.0491 46.1244 41.1451C46.1442 41.2409 46.1417 41.34 46.117 41.4346C46.1169 41.4348 46.1169 41.435 46.1168 41.4352L41.5235 58.8059L41.4076 59.2443L41.8326 59.4023C42.7039 59.7263 43.4339 60.3463 43.895 61.1543C44.3562 61.9624 44.5191 62.9069 44.3554 63.8231C44.1916 64.7392 43.7115 65.5685 42.9992 66.1662C42.2869 66.7639 41.3875 67.0921 40.4581 67.0935L26.4272 67.1039C26.4271 67.1039 26.427 67.1039 26.4269 67.1039C25.4988 67.1024 24.6006 66.775 23.8888 66.1787C23.1768 65.5823 22.6963 64.7547 22.5313 63.84C22.3662 62.9252 22.527 61.9816 22.9855 61.1734C23.4441 60.3652 24.1714 59.7438 25.0404 59.4174L25.4644 59.2581L25.3478 58.8205L20.7177 41.4488L20.7175 41.4479C20.6922 41.3539 20.6892 41.2553 20.7088 41.1599C20.7284 41.0646 20.77 40.9752 20.8302 40.8988L20.8301 40.8988C21.0444 40.6275 25.1364 35.3438 27.3568 30.4851L27.3578 30.4827C29.1299 26.5499 30.3684 22.3975 31.0402 18.1359L31.0733 17.9261L30.9452 17.7566C30.6006 17.3006 30.3899 16.7573 30.3368 16.1878C30.2837 15.6183 30.3904 15.0453 30.6449 14.5333C30.8993 14.0213 31.2914 13.5905 31.7769 13.2895C32.2624 12.9884 32.8222 12.8289 33.3932 12.8289C33.9643 12.8289 34.524 12.9884 35.0096 13.2895C35.4951 13.5905 35.8872 14.0213 36.1416 14.5333C36.396 15.0454 36.5027 15.6183 36.4497 16.1878C36.3966 16.7573 36.1859 17.3006 35.8412 17.7566L35.7128 17.9266L35.7464 18.137C36.428 22.3975 37.6759 26.5475 39.4568 30.4768ZM32.7609 16.5832V16.4144H34.0169V16.5832V18.4282L34.9485 16.8357C35.0043 16.7402 35.0519 16.6402 35.0908 16.5367L35.0909 16.5367L35.093 16.5307C35.1919 16.2569 35.2234 15.9633 35.185 15.6748C35.1466 15.3863 35.0393 15.1112 34.8722 14.8729C34.7051 14.6345 34.483 14.4399 34.2249 14.3056C34.1172 14.2496 34.0047 14.2047 33.8889 14.1715V14.1006L33.3901 14.0994C33.0985 14.0986 32.811 14.1685 32.5521 14.3029L32.7825 14.7466L32.5521 14.3029C32.2933 14.4372 32.0708 14.6322 31.9034 14.8711C31.7361 15.11 31.6289 15.3857 31.5909 15.6749C31.553 15.9641 31.5853 16.2582 31.6853 16.5322L31.6862 16.5346C31.7251 16.6397 31.7734 16.7411 31.8304 16.8376L32.7609 18.4119V16.5832ZM30.2702 42.77L30.2708 43.2693H30.3129C30.4185 43.9177 30.7249 44.5215 31.1953 44.9917C31.7845 45.5807 32.583 45.9122 33.416 45.9133H33.417C34.0392 45.9129 34.6472 45.7278 35.1642 45.3814C35.6811 45.0351 36.0838 44.5431 36.3213 43.9678C36.5589 43.3924 36.6206 42.7595 36.4987 42.1491C36.3768 41.5387 36.0768 40.9781 35.6366 40.5382C35.1963 40.0984 34.6356 39.7991 34.0252 39.6782L33.9281 40.1687L34.0252 39.6782C33.4149 39.5574 32.7825 39.6204 32.208 39.8594C31.6335 40.0984 31.1428 40.5025 30.7979 41.0206C30.453 41.5387 30.2694 42.1475 30.2702 42.77ZM42.3713 65.0433C42.759 64.6542 43.0167 64.1597 43.1164 63.6272H43.1704L43.168 63.1249C43.1647 62.408 42.8787 61.7214 42.3722 61.2144C41.8657 60.7073 41.1795 60.4209 40.463 60.4175H40.4606H40.3235H40.3231L26.5549 60.4297H26.5545H26.4247V60.4295L26.4107 60.4299C25.7055 60.4497 25.0358 60.744 24.5442 61.2502C24.0525 61.7564 23.7775 62.4344 23.7775 63.1402C23.7775 63.846 24.0525 64.5241 24.5441 65.0303C25.0358 65.5364 25.7055 65.8308 26.4107 65.8506L26.4179 65.8508L26.4251 65.8508L40.4575 65.8404H40.4583C41.1764 65.8387 41.8643 65.552 42.3713 65.0433ZM39.7478 59.1592L40.1325 59.1589L40.2308 58.787L44.7619 41.6463L44.8245 41.4096L44.6758 41.215C43.591 39.7948 40.2888 35.3055 38.3125 31.0062C36.8654 27.8114 35.7575 24.4732 35.0071 21.0467L34.0186 21.1542L34.0342 37.9943L34.0346 38.3899L34.4197 38.4805C35.4696 38.7277 36.3923 39.3525 37.0123 40.2363C37.6324 41.1201 37.9064 42.2012 37.7823 43.2741C37.6582 44.3471 37.1447 45.3368 36.3394 46.0553C35.5342 46.7738 34.4935 47.171 33.415 47.1716C32.3373 47.1708 31.2974 46.7741 30.4923 46.0567C29.6872 45.3392 29.173 44.3507 29.0475 43.2788C28.922 42.2069 29.1938 41.1261 29.8115 40.2416C30.4291 39.3571 31.3494 38.7304 32.3978 38.4802L32.7821 38.3884L32.7817 37.9934L32.7661 21.1584L31.7775 21.0528C31.0333 24.4799 29.9312 27.8192 28.4893 31.0155C26.5233 35.3166 23.2297 39.8129 22.151 41.2376L22.0036 41.4322L22.0665 41.6682L26.6323 58.7984L26.7313 59.1699L27.1158 59.1696L39.7478 59.1592Z" stroke="#C70100"/>
</svg>
